<svg viewBox="0 0 330 200" xmlns="http://www.w3.org/2000/svg"><g><g><g><g><g><line x1="41.171875" y1="177" x2="36.171875" y2="177" style="visibility: inherit;" fill="rgb(0, 0, 0)" stroke="rgb(204, 204, 204)" stroke-width="1px"></line><line x1="41.171875" y1="159.3" x2="36.171875" y2="159.3" style="visibility: inherit;" fill="rgb(0, 0, 0)" stroke="rgb(204, 204, 204)" stroke-width="1px"></line><line x1="41.171875" y1="141.6" x2="36.171875" y2="141.6" style="visibility: inherit;" fill="rgb(0, 0, 0)" stroke="rgb(204, 204, 204)" stroke-width="1px"></line><line x1="41.171875" y1="123.89999999999999" x2="36.171875" y2="123.89999999999999" style="visibility: inherit;" fill="rgb(0, 0, 0)" stroke="rgb(204, 204, 204)" stroke-width="1px"></line><line x1="41.171875" y1="106.20000000000002" x2="36.171875" y2="106.20000000000002" style="visibility: inherit;" fill="rgb(0, 0, 0)" stroke="rgb(204, 204, 204)" stroke-width="1px"></line><line x1="41.171875" y1="88.5" x2="36.171875" y2="88.5" style="visibility: inherit;" fill="rgb(0, 0, 0)" stroke="rgb(204, 204, 204)" stroke-width="1px"></line><line x1="41.171875" y1="70.79999999999998" x2="36.171875" y2="70.79999999999998" style="visibility: inherit;" fill="rgb(0, 0, 0)" stroke="rgb(204, 204, 204)" stroke-width="1px"></line><line x1="41.171875" y1="53.10000000000001" x2="36.171875" y2="53.10000000000001" style="visibility: inherit;" fill="rgb(0, 0, 0)" stroke="rgb(204, 204, 204)" stroke-width="1px"></line><line x1="41.171875" y1="35.39999999999999" x2="36.171875" y2="35.39999999999999" style="visibility: inherit;" fill="rgb(0, 0, 0)" stroke="rgb(204, 204, 204)" stroke-width="1px"></line><line x1="41.171875" y1="17.699999999999978" x2="36.171875" y2="17.699999999999978" style="visibility: inherit;" fill="rgb(0, 0, 0)" stroke="rgb(204, 204, 204)" stroke-width="1px"></line><line x1="41.171875" y1="0" x2="36.171875" y2="0" style="visibility: inherit;" fill="rgb(0, 0, 0)" stroke="rgb(204, 204, 204)" stroke-width="1px"></line></g><g transform="translate(31.171875, 0)"><text x="0" y="177" dx="0em" dy="0.3em" style="text-anchor: end; visibility: hidden; font-family: Roboto, sans-serif; font-size: 12px; font-weight: 200;" fill="rgb(33, 33, 33)" stroke="none" stroke-width="1px">0.2</text><text x="0" y="159.3" dx="0em" dy="0.3em" style="text-anchor: end; visibility: inherit; font-family: Roboto, sans-serif; font-size: 12px; font-weight: 200;" fill="rgb(33, 33, 33)" stroke="none" stroke-width="1px">0.3</text><text x="0" y="141.6" dx="0em" dy="0.3em" style="text-anchor: end; visibility: hidden; font-family: Roboto, sans-serif; font-size: 12px; font-weight: 200;" fill="rgb(33, 33, 33)" stroke="none" stroke-width="1px">0.4</text><text x="0" y="123.89999999999999" dx="0em" dy="0.3em" style="text-anchor: end; visibility: inherit; font-family: Roboto, sans-serif; font-size: 12px; font-weight: 200;" fill="rgb(33, 33, 33)" stroke="none" stroke-width="1px">0.5</text><text x="0" y="106.20000000000002" dx="0em" dy="0.3em" style="text-anchor: end; visibility: hidden; font-family: Roboto, sans-serif; font-size: 12px; font-weight: 200;" fill="rgb(33, 33, 33)" stroke="none" stroke-width="1px">0.6</text><text x="0" y="88.5" dx="0em" dy="0.3em" style="text-anchor: end; visibility: inherit; font-family: Roboto, sans-serif; font-size: 12px; font-weight: 200;" fill="rgb(33, 33, 33)" stroke="none" stroke-width="1px">0.7</text><text x="0" y="70.79999999999998" dx="0em" dy="0.3em" style="text-anchor: end; visibility: hidden; font-family: Roboto, sans-serif; font-size: 12px; font-weight: 200;" fill="rgb(33, 33, 33)" stroke="none" stroke-width="1px">0.8</text><text x="0" y="53.10000000000001" dx="0em" dy="0.3em" style="text-anchor: end; visibility: inherit; font-family: Roboto, sans-serif; font-size: 12px; font-weight: 200;" fill="rgb(33, 33, 33)" stroke="none" stroke-width="1px">0.9</text><text x="0" y="35.39999999999999" dx="0em" dy="0.3em" style="text-anchor: end; visibility: hidden; font-family: Roboto, sans-serif; font-size: 12px; font-weight: 200;" fill="rgb(33, 33, 33)" stroke="none" stroke-width="1px">1</text><text x="0" y="17.699999999999978" dx="0em" dy="0.3em" style="text-anchor: end; visibility: inherit; font-family: Roboto, sans-serif; font-size: 12px; font-weight: 200;" fill="rgb(33, 33, 33)" stroke="none" stroke-width="1px">1.1</text><text x="0" y="0" dx="0em" dy="0.3em" style="text-anchor: end; visibility: hidden; font-family: Roboto, sans-serif; font-size: 12px; font-weight: 200;" fill="rgb(33, 33, 33)" stroke="none" stroke-width="1px">1.2</text></g><line x1="41.171875" y1="0" x2="41.171875" y2="177" fill="rgb(0, 0, 0)" stroke="rgb(204, 204, 204)" stroke-width="1px"></line></g></g><g transform="translate(41, 0)" clip-path="url(#clip_0)"><clipPath id="clip_0"><rect width="288" height="177"></rect></clipPath><g><g><g><line x1="0" y1="0" x2="0" y2="177" fill="rgb(0, 0, 0)" stroke="rgb(66, 66, 66)" stroke-width="1px" opacity="0.25"></line><line x1="32.092013888888886" y1="0" x2="32.092013888888886" y2="177" fill="rgb(0, 0, 0)" stroke="rgb(66, 66, 66)" stroke-width="1px" opacity="0.25"></line><line x1="64.18402777777777" y1="0" x2="64.18402777777777" y2="177" fill="rgb(0, 0, 0)" stroke="rgb(66, 66, 66)" stroke-width="1px" opacity="0.25"></line><line x1="96.27604166666666" y1="0" x2="96.27604166666666" y2="177" fill="rgb(0, 0, 0)" stroke="rgb(66, 66, 66)" stroke-width="1px" opacity="0.25"></line><line x1="128.36805555555554" y1="0" x2="128.36805555555554" y2="177" fill="rgb(0, 0, 0)" stroke="rgb(66, 66, 66)" stroke-width="1px" opacity="0.25"></line><line x1="160.46006944444446" y1="0" x2="160.46006944444446" y2="177" fill="rgb(0, 0, 0)" stroke="rgb(66, 66, 66)" stroke-width="1px" opacity="0.25"></line><line x1="192.55208333333331" y1="0" x2="192.55208333333331" y2="177" fill="rgb(0, 0, 0)" stroke="rgb(66, 66, 66)" stroke-width="1px" opacity="0.25"></line><line x1="224.64409722222223" y1="0" x2="224.64409722222223" y2="177" fill="rgb(0, 0, 0)" stroke="rgb(66, 66, 66)" stroke-width="1px" opacity="0.25"></line><line x1="256.7361111111111" y1="0" x2="256.7361111111111" y2="177" fill="rgb(0, 0, 0)" stroke="rgb(66, 66, 66)" stroke-width="1px" opacity="0.25"></line><line x1="288.828125" y1="0" x2="288.828125" y2="177" fill="rgb(0, 0, 0)" stroke="rgb(66, 66, 66)" stroke-width="1px" opacity="0.25"></line></g><g><line x1="0" y1="177" x2="288.828125" y2="177" fill="rgb(0, 0, 0)" stroke="rgb(66, 66, 66)" stroke-width="1px" opacity="0.25"></line><line x1="0" y1="159.3" x2="288.828125" y2="159.3" fill="rgb(0, 0, 0)" stroke="rgb(66, 66, 66)" stroke-width="1px" opacity="0.25"></line><line x1="0" y1="141.6" x2="288.828125" y2="141.6" fill="rgb(0, 0, 0)" stroke="rgb(66, 66, 66)" stroke-width="1px" opacity="0.25"></line><line x1="0" y1="123.89999999999999" x2="288.828125" y2="123.89999999999999" fill="rgb(0, 0, 0)" stroke="rgb(66, 66, 66)" stroke-width="1px" opacity="0.25"></line><line x1="0" y1="106.20000000000002" x2="288.828125" y2="106.20000000000002" fill="rgb(0, 0, 0)" stroke="rgb(66, 66, 66)" stroke-width="1px" opacity="0.25"></line><line x1="0" y1="88.5" x2="288.828125" y2="88.5" fill="rgb(0, 0, 0)" stroke="rgb(66, 66, 66)" stroke-width="1px" opacity="0.25"></line><line x1="0" y1="70.79999999999998" x2="288.828125" y2="70.79999999999998" fill="rgb(0, 0, 0)" stroke="rgb(66, 66, 66)" stroke-width="1px" opacity="0.25"></line><line x1="0" y1="53.10000000000001" x2="288.828125" y2="53.10000000000001" fill="rgb(0, 0, 0)" stroke="rgb(66, 66, 66)" stroke-width="1px" opacity="0.25"></line><line x1="0" y1="35.39999999999999" x2="288.828125" y2="35.39999999999999" fill="rgb(0, 0, 0)" stroke="rgb(66, 66, 66)" stroke-width="1px" opacity="0.25"></line><line x1="0" y1="17.699999999999978" x2="288.828125" y2="17.699999999999978" fill="rgb(0, 0, 0)" stroke="rgb(66, 66, 66)" stroke-width="1px" opacity="0.25"></line><line x1="0" y1="0" x2="288.828125" y2="0" fill="rgb(0, 0, 0)" stroke="rgb(66, 66, 66)" stroke-width="1px" opacity="0.25"></line></g></g></g><g><g><line x1="0" y1="212.4" x2="288.828125" y2="212.4" fill="rgb(0, 0, 0)" stroke="rgb(153, 153, 153)" stroke-width="1.5px"></line></g></g><g><g><line x1="32.092013888888886" y1="0" x2="32.092013888888886" y2="177" fill="rgb(0, 0, 0)" stroke="rgb(153, 153, 153)" stroke-width="1.5px"></line></g></g><g><g><g><g><g><path stroke="rgb(255, 112, 67)" stroke-width="2px" d="M43.003298611111106,-3.7133913884105167L43.32421875,8.604361800137097L43.64513888888889,14.989655538963476L43.96605902777778,14.841869770904008L44.28697916666666,19.064924849109634L44.607899305555556,23.3758373768033L44.92881944444444,26.59249972957619L45.24973958333334,32.45189930228409L45.57065972222222,33.4470627958081L45.89157986111111,37.64787965028594L46.2125,38.70988828325256L46.53342013888889,44.451772308851L46.85434027777777,41.52490458023458L47.17526041666667,39.23778444956276L47.496180555555554,36.37871041309692L47.81710069444445,41.148546052114014L48.13802083333333,38.778324322762295L48.45894097222222,42.81487401300374L48.77986111111111,44.38012515052838L49.100781250000004,48.526516319190826L49.421701388888884,52.692310939361285L49.74262152777778,51.43938538201347L50.063541666666666,50.29823295097129L50.38446180555556,55.08637812984444L50.70538194444444,42.10714381249047L51.026302083333334,43.743085544772846L51.34722222222222,36.93664957133971L51.66814236111111,44.20911032347726L51.989062499999996,45.252064371042565L52.30998263888889,37.81372060771759L52.63090277777778,34.97203330991252L52.951822916666664,36.97694043158046L53.27274305555555,35.121323570242815L53.593663194444446,38.30551340617617L53.91458333333333,36.37158658527067L54.23550347222222,41.66819007410246L54.55642361111111,46.28339434155011L54.87734375,39.97595306687464L55.19826388888889,34.87460922034326L55.519184027777776,39.0849667813286L55.84010416666666,45.92289940034776L56.16102430555556,44.41121993729729L56.481944444444444,36.841932367499226L56.80286458333333,43.578797678479894L57.12378472222222,39.40104014654713L57.44470486111111,41.15654392587996L57.765625,40.27700617997561L58.08654513888889,40.924564437202896L58.407465277777774,37.50406032331722L58.72838541666667,42.170674485730714L59.049305555555556,47.58316606209729L59.37022569444444,39.906218597448174L59.69114583333333,36.99217238733549L60.012065972222224,46.86910522168505L60.33298611111111,46.090502201233086L60.65390625,46.29594227952585L60.974826388888886,39.99764417936102L61.29574652777778,44.77130661564884L61.61666666666667,49.872783969389296L61.937586805555554,53.97443006428892L62.25850694444444,47.323456451850014L62.579427083333336,56.21139401290229L62.900347222222216,56.460717008670635L63.22126736111111,60.7875118864539L63.5421875,61.521547888097935L63.86310763888889,56.807726639734376L64.18402777777777,56.938875457183514L64.50494791666667,54.43336636813641L64.82586805555556,58.62238021249865L65.14678819444444,58.55159013959942L65.46770833333333,61.263233131725634L65.78862847222221,58.13245856914463L66.10954861111111,61.854274736365944L66.43046875,59.5066039100416L66.75138888888888,65.85060077280568L67.07230902777778,60.08484143597346L67.39322916666667,59.337024260654815L67.71414930555557,64.81429404323981L68.03506944444445,66.479336952601L68.35598958333333,68.54744286026603L68.67690972222222,62.616266323840875L68.99782986111111,61.231118160317095L69.31875,63.88338914741862L69.63967013888889,63.3295144607412L69.96059027777778,60.63954666434451L70.28151041666668,64.66832972037032L70.60243055555556,66.34219857494372L70.92335069444444,67.68635720038617L71.24427083333333,66.1776922203553L71.56519097222223,67.48145686492037L71.8861111111111,66.88311443629689L72.20703125,70.23402847947374L72.5279513888889,72.3932562571865L72.84887152777779,72.71175537479529L73.16979166666667,73.68873443348772L73.49071180555555,81.34784238185622L73.81163194444444,79.57130478767239L74.13255208333332,76.5937815222006L74.45347222222222,75.94714681344395L74.77439236111111,76.5291265823672L75.0953125,70.02487659086168L75.4162326388889,71.91376546161996L75.73715277777778,69.47877746068018L76.05807291666666,79.86970483566867L76.37899305555555,77.55870113912552L76.69991319444443,77.03585877265532L77.02083333333333,81.47991371062993L77.34175347222222,78.38322828714608L77.66267361111112,75.10213720860816L77.98359375000001,75.06632257498943L78.30451388888889,77.88391226886297L78.62543402777777,71.72274715875734L78.94635416666667,75.1343702600905L79.26727430555556,76.7211437157696L79.58819444444444,82.1406863982621L79.90911458333333,79.56557148785252L80.23003472222223,83.96770193392548L80.55095486111112,78.85638084301063L80.871875,79.33667020731393L81.19279513888888,83.56840411623253L81.51371527777778,81.37092340826949L81.83463541666667,84.43495215439775L82.15555555555555,91.01697163023934L82.47647569444445,91.83682309292784L82.79739583333334,93.13585286321064L83.11831597222223,90.39651340592991L83.4392361111111,87.57762882679161L83.76015625,82.11265644532116L84.08107638888889,84.69591519058748L84.40199652777778,85.99806729806068L84.72291666666666,91.91236210735201L85.04383680555556,95.68041743321159L85.36475694444445,91.73208996702989L85.68567708333335,87.62141565471744L86.00659722222221,83.5336878871313L86.3275173611111,87.53801080795473L86.6484375,92.52480715997426L86.9693576388889,90.56796243242867L87.29027777777777,86.60433690579202L87.61119791666667,86.5554840948073L87.93211805555556,91.54588981544303L88.25303819444446,89.591214929076L88.57395833333332,87.14400952461479L88.89487847222222,86.68104431034993L89.21579861111111,89.70962523580714L89.53671875,85.77073657966328L89.85763888888889,83.89592005048199L90.17855902777778,89.49703215857745L90.49947916666667,83.92981916010619L90.82039930555557,86.71369058454181L91.14131944444443,86.09717376329985L91.46223958333333,89.76286235391193L91.78315972222222,87.16911771618781L92.10407986111112,83.58091135217819L92.425,87.80706685181902L92.74592013888889,88.07715978024271L93.06684027777779,88.89057390330949L93.38776041666667,88.90426384233666L93.70868055555555,85.04679777874489L94.02960069444444,93.92579877527918L94.35052083333333,90.64392133803585L94.67144097222223,92.44135111481795L94.99236111111111,93.8950521678379L95.31328125,94.92303332630698L95.6342013888889,96.18409921255055L95.95512152777778,98.68949775175062L96.27604166666666,97.70057688877468L96.59696180555555,94.36726546481538L96.91788194444445,96.92679983255441L97.23880208333334,88.96823904202685L97.55972222222222,90.97574133209173L97.88064236111111,89.40488636572229L98.20156250000001,91.69793013142983L98.52248263888889,93.34988000993395L98.84340277777777,94.68088724973477L99.16432291666666,94.29005255915328L99.48524305555556,91.23771257530215L99.80616319444445,89.35674880105593L100.12708333333333,94.04084870671234L100.44800347222223,93.77150821122528L100.76892361111112,98.34642496724726L101.08984375,96.88585346114517L101.41076388888888,101.46819328529763L101.73168402777777,102.91487622775509L102.05260416666667,100.10128697227165L102.37352430555556,101.38673311514094L102.69444444444444,99.8145201661732L103.01536458333334,99.2889141928283L103.33628472222222,104.8287073881106L103.65720486111111,103.8479463977025L103.97812499999999,104.43476648821864L104.29904513888889,101.76369906243345L104.61996527777778,98.51850034222996L104.94088541666667,104.33106164351699L105.26180555555555,104.37771714815854L105.58272569444445,103.6623094719014L105.90364583333333,106.32702765472898L106.22456597222222,101.97865495209795L106.5454861111111,104.99115153983176L106.86640625,103.06040951272809L107.18732638888889,101.9019642964659L107.50824652777779,100.97326059673179L107.82916666666667,104.26047487934798L108.15008680555556,101.72992318558914L108.47100694444444,103.81531514697208L108.79192708333333,102.27702741368373L109.11284722222221,104.98609823074199L109.43376736111111,103.36889858058845L109.7546875,101.95961768991802L110.0756076388889,105.4824124167386L110.39652777777778,105.77652693689008L110.71744791666667,103.51039544642053L111.03836805555555,109.0253979295497L111.35928819444445,107.81735680639774L111.68020833333333,101.39313587987442L112.00112847222222,104.35663952257643L112.32204861111111,102.8991849626685L112.64296875000001,102.16631040367987L112.96388888888889,103.95678438540402L113.28480902777778,102.02207164404456L113.60572916666666,104.96056481622256L113.92664930555556,103.54474071277734L114.24756944444444,104.79092374571299L114.56848958333333,106.83427334265791L114.88940972222223,102.09892557881403L115.21032986111112,105.15535652889092L115.53125,107.56269320162107L115.85217013888888,109.80005596823673L116.17309027777777,111.33363158909786L116.49401041666667,111.7086193383235L116.81493055555555,111.7920095908939L117.13585069444444,109.87380629469746L117.45677083333334,111.57612514072532L117.77769097222223,114.04891675218269L118.09861111111111,113.36611091556742L118.41953124999999,110.4076264683163L118.74045138888889,111.31585796736215L119.06137152777778,113.63079517878614L119.38229166666666,106.58747508166742L119.70321180555555,107.61484544061727L120.02413194444445,109.50566812862819L120.34505208333334,112.68627945250192L120.66597222222222,115.57876919070434L120.9868923611111,109.7599028108093L121.3078125,110.39622005925017L121.62873263888889,111.74089404765033L121.94965277777777,114.36017536177195L122.27057291666667,112.7174267092583L122.59149305555556,111.06625680203659L122.91241319444445,109.26135479018345L123.23333333333333,111.1307739746884L123.55425347222221,116.50042354418729L123.87517361111111,114.68125446411307L124.19609375,112.40739093644818L124.51701388888888,111.6023927928412L124.83793402777778,116.50019637116218L125.15885416666667,119.22647703271167L125.47977430555557,120.51532694209251L125.80069444444443,117.65659765069864L126.12161458333333,118.37687910357224L126.44253472222222,116.51512712454264L126.76345486111111,113.75551767239253L127.084375,118.46467107945251L127.40529513888889,122.58580290087203L127.72621527777778,123.17520176415528L128.04713541666666,120.689760498076L128.36805555555554,116.03373808137731L128.68897569444445,114.330444097949L129.00989583333333,113.10314739729938L129.3308159722222,117.329850045359L129.65173611111112,118.25871080369703L129.97265625,114.6317450035271L130.29357638888888,115.20260560444935L130.6144965277778,111.30420297105279L130.93541666666667,116.28588082384566L131.25633680555555,115.40920750851333L131.57725694444443,116.58948391768277L131.89817708333334,120.78100964840017L132.21909722222222,123.08352571139193L132.54001736111113,122.63839396840011L132.8609375,123.34127551678223L133.18185763888889,123.64264557339789L133.50277777777777,122.34374682413365L133.82369791666667,124.77872712556615L134.14461805555555,125.97067708220538L134.46553819444443,123.78304433850323L134.78645833333334,124.38206751124784L135.10737847222222,123.73612127647834L135.42829861111113,121.5643928739192L135.74921874999998,122.13755488710179L136.0701388888889,123.60717321584566L136.39105902777777,121.59322478026117L136.71197916666665,123.66997435837965L137.03289930555556,123.44338660687195L137.35381944444444,122.21711026936762L137.67473958333335,119.44230793064827L137.99565972222223,122.1387043937802L138.3165798611111,123.84858277468442L138.6375,123.0832700766835L138.9584201388889,125.84548107372008L139.27934027777778,128.3240889143126L139.60026041666666,126.74561341948372L139.92118055555557,129.20400774447359L140.24210069444445,128.54796519022128L140.56302083333335,130.62525822961894L140.8839409722222,124.58631627467014L141.20486111111111,127.69603008214675L141.52578125,126.29089785685564L141.84670138888887,123.96809984845179L142.16762152777778,123.44525784970675L142.48854166666666,127.44327495289654L142.80946180555557,126.10384523506649L143.13038194444445,130.61018656036666L143.45130208333333,134.84327192271599L143.7722222222222,135.29452259996444L144.09314236111112,131.17567255055255L144.4140625,124.78204364511575L144.73498263888888,124.85402704795126L145.0559027777778,127.82125700187638L145.37682291666667,127.30767412347765L145.69774305555558,128.48632424451813L146.01866319444443,132.52111367570106L146.33958333333334,130.8993074762031L146.66050347222222,129.72798462076213L146.9814236111111,130.91555020191208L147.30234375,130.60149010764323L147.62326388888889,133.4503737708733L147.9441840277778,132.88702453260456L148.26510416666665,134.630534354954L148.58602430555555,131.6056399107629L148.90694444444443,131.8226649356278L149.22786458333334,126.31719950153781L149.54878472222222,128.5717204267642L149.8697048611111,128.0765522965706L150.190625,132.09825067573288L150.5115451388889,128.3870704797119L150.8324652777778,130.98892180843413L151.15338541666665,131.5588327069477L151.47430555555556,132.46718039389822L151.79522569444444,131.05810757801754L152.11614583333332,127.85502301410334L152.43706597222223,131.25733378145395L152.7579861111111,129.29143992789565L153.07890625000002,130.37042492227542L153.39982638888887,135.65521529434196L153.72074652777778,136.90032856892392L154.04166666666666,136.22431670922543L154.36258680555557,135.6841904812962L154.68350694444445,134.3122738870329L155.00442708333333,135.4148848791329L155.32534722222223,133.80376992818165L155.64626736111111,135.11686156866816L155.96718750000002,128.26539700196903L156.28810763888887,131.22035760025216L156.60902777777778,136.0094143744709L156.92994791666666,130.78332848289025L157.25086805555554,132.97891751848707L157.57178819444445,135.13879148675827L157.89270833333333,137.11439471312661L158.21362847222224,133.74023753683744L158.53454861111112,134.05214269090283L158.85546875,137.70140636401527L159.17638888888888,131.9613653781244L159.49730902777776,130.9670200539964L159.81822916666667,134.23609288652764L160.13914930555555,134.1230962855817L160.46006944444446,135.59873702187548L160.78098958333334,138.79928161894804L161.10190972222225,137.9867285358639L161.4228298611111,136.3734776751835L161.74375,139.2004059873008L162.06467013888889,138.6309626032104L162.38559027777777,137.2131373458618L162.70651041666667,137.7076417525717L163.02743055555555,139.44866563559225L163.34835069444446,136.91787957716375L163.66927083333334,137.00656877260442L163.99019097222222,137.15890185773986L164.3111111111111,137.02374209368597L164.63203124999998,142.46504476669057L164.9529513888889,138.68522633673325L165.27387152777777,137.69173575139985L165.59479166666668,136.047800542694L165.91571180555556,137.001360605825L166.23663194444447,138.16821616093458L166.55755208333332,138.6205305743226L166.8784722222222,138.90607735204748L167.1993923611111,136.96756557397873L167.5203125,140.6684196077158L167.8412326388889,142.78981246008695L168.16215277777778,140.5722071114434L168.48307291666669,141.8400046314748L168.80399305555557,143.28744316374969L169.12491319444445,149.713706468795L169.44583333333333,150.34098466113466L169.7667534722222,145.15955139085804L170.08767361111111,142.1427298217127L170.40859375,144.36823767358717L170.7295138888889,145.66106166562233L171.05043402777778,142.11087773871895L171.3713541666667,143.0888861908464L171.69227430555554,140.1994125517576L172.01319444444442,140.21448737575827L172.33411458333333,142.60241244908698L172.6550347222222,144.3537676112445L172.97595486111112,144.7673804722185L173.296875,143.52874834072324L173.6177951388889,145.08656897742586L173.9387152777778,140.48470047830963L174.25963541666667,137.95722016882553L174.58055555555555,143.0109713720778L174.90147569444443,148.21678196236488L175.22239583333334,145.67626949813962L175.54331597222222,146.5025217191398L175.86423611111113,147.13279216385007L176.18515625,147.7587554603584L176.5060763888889,146.9165739244084L176.82699652777777,146.49622433101297L177.14791666666665,145.94665376135802L177.46883680555555,149.65251221292672L177.78975694444443,146.3961073615161L178.11067708333334,144.2369441400771L178.43159722222222,142.67948704783942L178.75251736111113,137.72357223883168L179.0734375,138.92014325889883L179.39435763888886,141.21692622204387L179.71527777777777,142.7719958311305L180.03619791666665,141.80051806247147L180.35711805555556,143.23543074295472L180.67803819444444,140.73337944844693L180.99895833333335,143.38810833751756L181.31987847222223,147.53682568108795L181.64079861111114,144.4540956618533L181.96171875,146.8878573633519L182.28263888888887,147.87375373943374L182.60355902777778,144.43677194657158L182.92447916666666,146.30398292149445L183.24539930555557,146.35522934439982L183.56631944444445,144.31861807252886L183.88723958333335,145.65961038438036L184.20815972222223,143.62512518744202L184.5290798611111,145.96567421782333L184.85,145.6070843889017L185.17092013888887,143.30332995138758L185.49184027777778,145.36195856500981L185.81276041666666,148.41669593911956L186.13368055555557,148.6565377727842L186.45460069444445,147.51896333549593L186.77552083333333,147.23289905461175L187.0964409722222,148.56929963870348L187.4173611111111,152.06862028624715L187.73828125,152.38405201307597L188.05920138888888,148.54479143066203L188.3801215277778,149.56883443977233L188.70104166666667,150.84169978610157L189.02196180555558,152.13642059750248L189.34288194444446,150.8317316090279L189.6638020833333,150.48079814167102L189.98472222222222,151.00655786544849L190.3056423611111,150.59277507037382L190.6265625,148.87894484979188L190.94748263888889,149.5994078349011L191.2684027777778,148.43868503516535L191.58932291666667,148.52813094345103L191.91024305555555,153.28999906234367L192.23116319444443,153.47087894113315L192.55208333333331,152.7935272802797L192.87300347222222,149.7816764897041L193.1939236111111,152.781886157151L193.51484375,149.44193145797013L193.8357638888889,151.04167950609536L194.1566840277778,152.34136775767334L194.47760416666668,150.44493971607406L194.79852430555553,153.24356411660503L195.11944444444444,154.56873909452432L195.44036458333332,152.18492407452388L195.76128472222223,152.44675522119596L196.0822048611111,152.90121261281251L196.40312500000002,149.07456834079312L196.7240451388889,151.189421537885L197.04496527777778,152.87605314217143L197.36588541666666,153.82431208111126L197.68680555555554,156.02874664436152L198.00772569444445,155.5318471763752L198.32864583333333,156.23198856915369L198.64956597222223,152.05715263846716L198.97048611111111,155.8888517890167L199.29140625,154.48503084384157L199.6123263888889,153.34537746311875L199.93324652777775,151.84738747716938L200.25416666666666,151.60703302646274L200.57508680555554,153.77798051133513L200.89600694444445,154.82566890773032L201.21692708333333,155.7304013446382L201.53784722222224,155.2891199729092L201.85876736111112,151.44895287163536L202.1796875,156.13281168584516L202.50060763888888,154.31280666377833L202.82152777777776,151.2808845721882L203.14244791666667,153.6884900714875L203.46336805555555,154.95605353986747L203.78428819444446,154.5908726100655L204.10520833333334,154.39300335672687L204.42612847222222,156.95760186211578L204.74704861111113,159.7070414143581L205.06796874999998,158.3972656892406L205.38888888888889,156.22371997396155L205.70980902777777,157.00819097495082L206.03072916666667,155.85047555050852L206.35164930555555,157.08868630934717L206.67256944444443,156.21029169445612L206.99348958333334,156.6956941287838L207.31440972222222,153.89297702080742L207.63532986111113,151.87858639816483L207.95624999999998,151.37087228453183L208.2771701388889,152.54596248958126L208.59809027777777,154.3979770379878L208.91901041666668,156.74818669543367L209.23993055555556,158.22911157837927L209.56085069444444,159.8469072474922L209.88177083333335,156.72534500681672L210.2026909722222,155.28428758813925L210.5236111111111,158.85173220177882L210.84453125,158.57791924679515L211.1654513888889,159.9853906500592L211.48637152777778,159.25103525091734L211.80729166666666,160.17686087709382L212.12821180555557,161.06511661065647L212.44913194444445,164.28847022803444L212.77005208333335,157.9813611003865L213.0909722222222,157.53885733205732L213.41189236111111,153.62715348433647L213.7328125,155.26617218513007L214.0537326388889,159.13822377359102L214.37465277777778,159.14629457137124L214.69557291666666,157.37405756319248L215.01649305555557,157.95327362301757L215.33741319444442,162.29392438818698L215.65833333333333,161.259195490418L215.9792534722222,158.0612367270816L216.30017361111112,158.59214284649067L216.62109375,160.41872567075833L216.94201388888888,160.7783555611273L217.2629340277778,158.84889410640602L217.58385416666667,161.47901699725273L217.90477430555558,164.2960906051605L218.22569444444443,164.79689468044094L218.54661458333334,162.95921680151255L218.86753472222222,159.32196936857002L219.1884548611111,159.33442219168722L219.509375,159.80209429067838L219.83029513888889,160.84025665880722L220.1512152777778,159.0630345962136L220.47213541666665,163.88726084719232L220.79305555555555,159.70887713962875L221.11397569444443,158.57536695560265L221.43489583333334,160.387420831683L221.75581597222222,159.71173180017632L222.0767361111111,159.77359996124366L222.39765625,159.53459934880885L222.7185763888889,163.16483956033323L223.0394965277778,166.61738415988881L223.36041666666665,165.1064304115331L223.68133680555556,162.36613771688675L224.00225694444444,161.14676296098077L224.32317708333332,158.4256571351471L224.64409722222223,161.0905535923828L224.9650173611111,164.76393176718886L225.28593750000002,159.37111984017096L225.60685763888887,161.09851124240518L225.92777777777778,163.8624657866571L226.24869791666666,163.04283876640878L226.56961805555557,163.6272238911586L226.89053819444445,162.59017468579987L227.21145833333333,162.7255042713188L227.53237847222223,159.19590209015027L227.85329861111111,160.55442160181892L228.17421875000002,159.53581286318712L228.49513888888887,158.12460779218443L228.81605902777778,160.27980492513518L229.13697916666666,162.47208260060037L229.45789930555554,165.7486096987765L229.77881944444445,163.81344638643512L230.09973958333333,163.78514858471064L230.42065972222224,165.70100886217776L230.74157986111112,161.74584512825027L231.0625,165.2349869520379L231.38342013888888,162.20255178635793L231.70434027777776,163.5761709333985L232.02526041666667,162.32590212115815L232.34618055555555,163.9192214685033L232.66710069444446,163.62205190881195L232.98802083333334,162.26847137823165L233.30894097222225,163.28296233066595L233.6298611111111,163.190736642174L233.95078125,160.06268196504834L234.27170138888889,159.51688848019555L234.59262152777777,160.91693209219522L234.91354166666667,162.02599859361976L235.23446180555555,163.2436794026204L235.55538194444446,160.90156862399027L235.87630208333334,159.01486033714443L236.19722222222222,163.78047602842227L236.5181423611111,166.7106455866693L236.83906249999998,162.14630685235255L237.1599826388889,165.5248237704348L237.48090277777777,164.47921465725372L237.80182291666668,166.11036838585537L238.12274305555556,166.9120607918167L238.44366319444447,165.8850370827713L238.76458333333332,166.27418299576036L239.0855034722222,165.0775095442557L239.4064236111111,166.01622608778618L239.72734375,163.92445643590534L240.0482638888889,163.7809534159103L240.36918402777778,166.3569323567628L240.69010416666669,165.01387935328955L241.01102430555557,160.5335275950937L241.33194444444445,160.71271760361842L241.65286458333333,165.21691007433802L241.9737847222222,165.65382624041123L242.29470486111111,163.97605475170064L242.615625,164.6119522332111L242.9365451388889,164.75277086728568L243.25746527777778,165.7718230976686L243.5783854166667,162.86449289643917L243.89930555555554,163.3573767776737L244.22022569444442,167.83030607673223L244.54114583333333,166.31562327130254L244.8620659722222,167.02105348338853L245.18298611111112,164.68311128991945L245.50390625,165.3689465139991L245.8248263888889,165.39812750665462L246.1457465277778,165.0828757443912L246.46666666666667,165.87076645606084L246.78758680555555,167.03025984831646L247.10850694444443,167.34363679687974L247.42942708333334,164.13326240897652L247.75034722222222,164.57175771546648L248.07126736111113,166.91637426467113L248.3921875,168.0187043157302L248.7131076388889,169.50846265358223L249.03402777777777,166.49415691019593L249.35494791666665,166.5688536937326L249.67586805555555,166.04727272601664L249.99678819444443,166.321964597772L250.31770833333334,169.0568189156475L250.63862847222222,167.12233217313425L250.95954861111113,170.2379597208174L251.28046875,170.5709755624099L251.60138888888886,167.39362592487115L251.92230902777777,165.522615686587L252.24322916666665,166.66560991497724L252.56414930555556,164.0379652231448L252.88506944444444,165.78897882160624L253.20598958333335,168.00070764575648L253.52690972222223,168.16662427517323L253.84782986111114,169.66801477272838L254.16875,166.8872489953013L254.48967013888887,165.31083003187013L254.81059027777778,164.11717762412923L255.13151041666666,165.7232275096315L255.45243055555557,167.35237604664195L255.77335069444445,167.41654553345697L256.0942708333333,168.48872784335526L256.4151909722222,165.7477969119496L256.7361111111111,162.42527843413035L257.05703125,162.6407267600136L257.3779513888889,162.5221968358658L257.6988715277778,163.4068771258534L258.01979166666666,164.29876613709578L258.34071180555554,163.06389912184028L258.6616319444444,163.05221965203256L258.9825520833333,161.3176922672365" style="fill: none;" fill="none"></path></g></g></g></g><g opacity="0.2"><g><g><g><path stroke="rgb(255, 112, 67)" stroke-width="2px" d="M42.682378472222226,-0.9380953073501666L43.003298611111106,3.5753940582275314L43.32421875,27.08099105358123L43.64513888888889,24.567595982551566L43.96605902777778,14.62019112110137L44.28697916666666,25.399507427215568L44.607899305555556,29.842206144332877L44.92881944444444,31.41749324798583L45.24973958333334,41.24099864959716L45.57065972222222,34.93980803489684L45.89157986111111,43.94910492897033L46.2125,40.302901232242576L46.53342013888889,53.06459834575652L46.85434027777777,37.13460298776626L47.17526041666667,35.80710425376891L47.496180555555554,32.090099358558646L47.81710069444445,48.303299510478965L48.13802083333333,35.222991728782645L48.45894097222222,48.86969854831695L48.77986111111111,46.728001856803886L49.100781250000004,54.746103072166434L49.421701388888884,58.94100286960601L49.74262152777778,49.559997045993796L50.063541666666666,48.58650430440902L50.38446180555556,62.26859589815139L50.70538194444444,22.63829233646392L51.026302083333334,46.1969981431961L51.34722222222222,26.726995611190787L51.66814236111111,55.117801451683036L51.989062499999996,46.81649544239043L52.30998263888889,26.6562049627304L52.63090277777778,30.709502363204948L52.951822916666664,39.98430111408233L53.27274305555555,32.33789827823638L53.593663194444446,43.08179816007613L53.91458333333333,33.470696353912345L54.23550347222222,49.61309530735015L54.55642361111111,53.20620074272155L54.87734375,30.51479115486144L55.19826388888889,27.222593450546256L55.519184027777776,45.40050312280654L55.84010416666666,56.17979832887649L56.16102430555556,42.14370074272155L56.481944444444444,25.488001012802115L56.80286458333333,53.68409564495086L57.12378472222222,33.13440384864806L57.44470486111111,43.78979959487914L57.765625,38.95769956111907L58.08654513888889,41.895901823043815L58.407465277777774,32.3733041524887L58.72838541666667,49.170595729351035L59.049305555555556,55.70190342664718L59.37022569444444,28.39079740047454L59.69114583333333,32.621103072166434L60.012065972222224,61.68450447320937L60.33298611111111,44.922597670555106L60.65390625,46.60410239696502L60.974826388888886,30.55019702911376L61.29574652777778,51.93180027008056L61.61666666666667,57.52499999999999L61.937586805555554,60.12689920663833L62.25850694444444,37.34699603319167L62.579427083333336,69.54330035448073L62.900347222222216,56.83470150232314L63.22126736111111,67.2777042031288L63.5421875,62.622601890563956L63.86310763888889,49.73699476718902L64.18402777777777,57.13559868335723L64.50494791666667,50.675102734565726L64.82586805555556,64.90590097904204L65.14678819444444,58.44540503025054L65.46770833333333,65.330697619915L65.78862847222221,53.436296725273124L66.10954861111111,67.43699898719787L66.43046875,55.985097670555106L66.75138888888888,75.36659606695174L67.07230902777778,51.43620243072509L67.39322916666667,58.21529849767684L67.71414930555557,73.0301987171173L68.03506944444445,68.97690131664275L68.35598958333333,71.6496017217636L68.67690972222222,53.71950151920318L68.99782986111111,59.153395915031425L69.31875,67.86179562807082L69.63967013888889,62.49870243072509L69.96059027777778,56.60459496974944L70.28151041666668,70.71150430440902L70.60243055555556,68.85300185680389L70.92335069444444,69.7025951385498L71.24427083333333,63.91469475030898L71.56519097222223,69.43710383176803L71.8861111111111,65.98560079336166L72.20703125,75.26039954423904L72.5279513888889,75.63209792375564L72.84887152777779,73.18950405120849L73.16979166666667,75.15420302152633L73.49071180555555,92.83650430440902L73.81163194444444,76.90649839639663L74.13255208333332,72.12749662399291L74.45347222222222,74.97719475030898L74.77439236111111,77.4020962357521L75.0953125,60.268501603603355L75.4162326388889,74.74709876775741L75.73715277777778,65.82629545927047L76.05807291666666,95.45609589815139L76.37899305555555,74.09219559431075L76.69991319444443,76.25159522294997L77.02083333333333,88.14599611759185L77.34175347222222,73.73820015192031L77.66267361111112,70.18050059080123L77.98359375000001,75.0126006245613L78.30451388888889,82.1102968096733L78.62543402777777,62.48099949359893L78.94635416666667,80.2518049120903L79.26727430555556,79.10130389928817L79.58819444444444,90.27000042200088L79.90911458333333,75.70289912223815L80.23003472222223,90.57089760303496L80.55095486111112,71.18939920663833L80.871875,80.05710425376891L81.19279513888888,89.91600497961043L81.51371527777778,78.07470234632491L81.83463541666667,89.03099527359008L82.15555555555555,100.89000084400176L82.47647569444445,93.0666002869606L82.79739583333334,95.08439751863479L83.11831597222223,86.28750422000884L83.4392361111111,83.3493019580841L83.76015625,73.91519787311553L84.08107638888889,88.57080330848693L84.40199652777778,87.95129545927047L84.72291666666666,100.78380432128905L85.04383680555556,101.33250042200088L85.36475694444445,85.80959876775741L85.68567708333335,81.45540418624877L86.00659722222221,77.4020962357521L86.3275173611111,93.5444951891899L86.6484375,100.00500168800353L86.9693576388889,87.63269534111022L87.29027777777777,80.65889861583709L87.61119791666667,86.48220487833022L87.93211805555556,99.03149839639663L88.25303819444446,86.65920259952544L88.57395833333332,83.47320141792297L88.89487847222222,85.98659648895263L89.21579861111111,94.25249662399291L89.53671875,79.86240359544753L89.85763888888889,81.08369525671004L90.17855902777778,97.89870032072066L90.49947916666667,75.57899966239928L90.82039930555557,90.88949772119521L91.14131944444443,85.17239853143691L91.46223958333333,95.26139523983001L91.78315972222222,83.27850075960158L92.10407986111112,78.19860180616378L92.425,94.1463001012802L92.74592013888889,88.48229917287826L93.06684027777779,90.11069508790969L93.38776041666667,88.92479875087737L93.70868055555555,79.26059868335723L94.02960069444444,107.24430027008056L94.35052083333333,85.72110518217086L94.67144097222223,95.13749577999114L94.99236111111111,96.07560374736785L95.31328125,96.46500506401061L95.6342013888889,98.07569804191589L95.95512152777778,102.44759556055068L96.27604166666666,96.21719559431075L96.59696180555555,89.36729832887649L96.91788194444445,100.7661013841629L97.23880208333334,77.0303978562355L97.55972222222222,93.98699476718902L97.88064236111111,87.0486039161682L98.20156250000001,95.13749577999114L98.52248263888889,95.82780482769012L98.84340277777777,96.67739810943603L99.16432291666666,93.70380052328109L99.48524305555556,86.65920259952544L99.80616319444445,86.53530313968658L100.12708333333333,101.06699856519698L100.44800347222223,93.36749746799468L100.76892361111112,105.2088001012802L101.08984375,94.69499620199203L101.41076388888888,108.34170302152633L101.73168402777777,105.08490064144134L102.05260416666667,95.88090308904647L102.37352430555556,103.31490232944488L102.69444444444444,97.45620074272155L103.01536458333334,98.50050523281097L103.33628472222222,113.13839718103408L103.65720486111111,102.3768049120903L103.97812499999999,105.31499662399291L104.29904513888889,97.75709792375564L104.61996527777778,93.65070226192474L104.94088541666667,113.04990359544753L105.26180555555555,104.44770040512084L105.58272569444445,102.58919795751571L105.90364583333333,110.32410492897033L106.22456597222222,95.45609589815139L106.5454861111111,109.50989642143249L106.86640625,100.16429647207259L107.18732638888889,100.16429647207259L107.50824652777779,99.58020504713058L107.82916666666667,109.19129630327224L108.15008680555556,97.93409564495086L108.47100694444444,106.94340308904647L108.79192708333333,99.96959581375121L109.11284722222221,109.04970445632934L109.43376736111111,100.94309910535812L109.7546875,99.84569635391234L110.0756076388889,110.76660450696944L110.39652777777778,106.2176987171173L110.71744791666667,100.11119821071624L111.03836805555555,117.29790165424346L111.35928819444445,106.00529512166976L111.68020833333333,91.75680449008941L112.00112847222222,108.80189498662948L112.32204861111111,100.71300312280654L112.64296875000001,101.06699856519698L112.96388888888889,106.64249535799026L113.28480902777778,99.1200025320053L113.60572916666666,109.36830457448958L113.92664930555556,101.42100455760955L114.24756944444444,106.66019829511642L114.56848958333333,109.89929773807525L114.88940972222223,94.99590393304824L115.21032986111112,109.74000295400619L115.53125,111.17369821071624L115.85217013888888,113.15610011816024L116.17309027777777,113.63399502038955L116.49401041666667,112.27110096216201L116.81493055555555,111.91709496974944L117.13585069444444,106.99650135040282L117.45677083333334,114.12960340976714L117.77769097222223,117.75810416936874L118.09861111111111,112.34190216064452L118.41953124999999,105.96989979743957L118.74045138888889,112.67820521593093L119.06137152777778,117.10320099592208L119.38229166666666,96.02249493598937L119.70321180555555,109.15590097904204L120.02413194444445,112.34190216064452L120.34505208333334,117.45719643831252L120.66597222222222,119.91750379800796L120.9868923611111,101.03160324096679L121.3078125,111.35069593191146L121.62873263888889,113.75790503025054L121.94965277777777,118.2890973329544L122.27057291666667,110.25330373048781L122.59149305555556,108.58950194120406L122.91241319444445,106.55400177240371L123.23333333333333,113.93490275144576L123.55425347222221,124.55489789843558L123.87517361111111,111.95250084400176L124.19609375,108.99659564495086L124.51701388888888,110.39489557743072L124.83793402777778,123.84690173864364L125.15885416666667,123.31589802503585L125.47977430555557,122.44860180616378L125.80069444444443,113.36850371360778L126.12161458333333,119.45730128288268L126.44253472222222,113.72249915599822L126.76345486111111,109.61610349416732L127.084375,125.52840119004249L127.40529513888889,128.76750063300133L127.72621527777778,124.05930005908012L128.04713541666666,116.96159859895705L128.36805555555554,109.04970445632934L128.68897569444445,111.77550312280654L129.00989583333333,111.26220234632491L129.3308159722222,123.66990401744842L129.65173611111112,119.65200194120406L129.97265625,109.19129630327224L130.29357638888888,116.05889650583266L130.6144965277778,105.45659902095794L130.93541666666667,123.75839760303496L131.25633680555555,114.09419753551482L131.57725694444443,118.35989853143691L131.89817708333334,127.06829824447631L132.21909722222222,126.53729980587958L132.54001736111113,121.97069635391234L132.8609375,124.39559783935546L133.18185763888889,124.09470065832137L133.50277777777777,120.39539870023727L133.82369791666667,128.43119757771493L134.14461805555555,127.75860201716422L134.46553819444443,120.50159522294997L134.78645833333334,125.28060227036475L135.10737847222222,122.76720192432403L135.42829861111113,118.30680027008056L135.74921874999998,122.9972979068756L136.0701388888889,125.81160070896148L136.39105902777777,118.57230212688445L136.71197916666665,126.78509872555732L137.03289930555556,123.10350497961043L137.35381944444444,120.3776957631111L137.67473958333335,115.28010442256927L137.99565972222223,126.18329908847808L138.3165798611111,126.41340034604072L138.6375,121.93530102968215L138.9584201388889,129.9887975692749L139.27934027777778,132.04200067520142L139.60026041666666,124.37790017724036L139.92118055555557,132.8915992319584L140.24210069444445,127.56390135884284L140.56302083333335,133.74119778871537L140.8839409722222,115.527903342247L141.20486111111111,132.36060079336167L141.52578125,124.18319951891898L141.84670138888887,120.48390283584594L142.16762152777778,122.6609948515892L142.48854166666666,133.44030060768128L142.80946180555557,124.09470065832137L143.13038194444445,137.36969854831696L143.45130208333333,141.19289996623993L143.7722222222222,135.9713986158371L144.09314236111112,124.9973974764347L144.4140625,115.1916002869606L144.73498263888888,124.9620021522045L145.0559027777778,132.27210193276406L145.37682291666667,126.53729980587958L145.69774305555558,130.2542994260788L146.01866319444443,138.57329782247544L146.33958333333334,128.46659817695618L146.66050347222222,127.9710003376007L146.9814236111111,132.69689857363701L147.30234375,130.13039996623993L147.62326388888889,137.72369926571847L147.9441840277778,132.04200067520142L148.26510416666665,137.2457990884781L148.58602430555555,127.06829824447631L148.90694444444443,132.1482024729252L149.22786458333334,118.05900135040282L149.54878472222222,131.9535018146038L149.8697048611111,127.3338001012802L150.190625,138.13079824447632L150.5115451388889,122.82030018568038L150.8324652777778,134.8916988015175L151.15338541666665,132.41369905471802L151.47430555555556,133.82970192432404L151.79522569444444,128.94449835419655L152.11614583333332,123.05039616823196L152.43706597222223,136.36079993247986L152.7579861111111,126.3425991475582L153.07890625000002,131.98890241384507L153.39982638888887,143.5824008524418L153.72074652777778,138.76799848079682L154.04166666666666,135.21029891967774L154.36258680555557,134.8740011394024L154.68350694444445,132.2543989956379L155.00442708333333,137.06880136728287L155.32534722222223,131.38709750175477L155.64626736111111,137.08649902939797L155.96718750000002,117.98820015192031L156.28810763888887,135.65279849767686L156.60902777777778,143.19299953579903L156.92994791666666,122.94419964551925L157.25086805555554,136.27230107188225L157.57178819444445,138.37860243916512L157.89270833333333,140.07779955267907L158.21362847222224,128.67900177240372L158.53454861111112,134.5200004220009L158.85546875,143.17530187368394L159.17638888888888,123.35130389928817L159.49730902777776,129.47550206780434L159.81822916666667,139.13970213532448L160.13914930555555,133.9536013841629L160.46006944444446,137.81219812631608L160.78098958333334,143.6000985145569L161.10190972222225,136.76789891123772L161.4228298611111,133.9536013841629L161.74375,143.44079845547677L162.06467013888889,137.77679752707482L162.38559027777777,135.08639945983887L162.70651041666667,138.44939836263657L163.02743055555555,142.06020146012307L163.34835069444446,133.12170048952103L163.66927083333334,137.1396025657654L163.99019097222222,137.38740148544312L164.3111111111111,136.82100244760514L164.63203124999998,150.62699877619744L164.9529513888889,133.01549869179726L165.27387152777777,136.20149987339974L165.59479166666668,133.58189772963524L165.91571180555556,138.43170070052147L166.23663194444447,139.91849949359894L166.55755208333332,139.2990021944046L166.8784722222222,139.3343975186348L167.1993923611111,134.05979790687562L167.5203125,146.2197006583214L167.8412326388889,145.97190173864365L168.16215277777778,137.2457990884781L168.48307291666669,143.74170091152192L168.80399305555557,145.45860096216202L169.12491319444445,159.353101426363L169.44583333333333,151.2819019496441L169.7667534722222,137.38740148544312L170.08767361111111,137.6174974679947L170.40859375,147.70649945139886L170.7295138888889,147.60029765367509L171.05043402777778,136.78560184836388L171.3713541666667,144.55589886903763L171.69227430555554,135.8652020931244L172.01319444444442,140.2370996117592L172.33411458333333,146.18430005908013L172.6550347222222,146.98080035448075L172.97595486111112,145.3877997636795L173.296875,141.6708001434803L173.6177951388889,147.42329993247986L173.9387152777778,133.58189772963524L174.25963541666667,134.1659997045994L174.58055555555555,150.59159817695618L174.90147569444443,156.0254978477955L175.22239583333334,141.8655008018017L175.54331597222222,147.7419000506401L175.86423611111113,148.07819783091546L176.18515625,148.69770040512086L176.5060763888889,145.6533016204834L176.82699652777777,145.86569994091988L177.14791666666665,145.12229790687562L177.46883680555555,155.21129989027978L177.78975694444443,141.51150008440018L178.11067708333334,140.99819930791855L178.43159722222222,140.34330140948296L178.75251736111113,130.28970002532006L179.0734375,140.71499978899956L179.39435763888886,144.6621006667614L179.71527777777777,145.10460024476052L180.03619791666665,140.34330140948296L180.35711805555556,145.3877997636795L180.67803819444444,136.98030250668526L180.99895833333335,147.3702016711235L181.31987847222223,153.75990169644356L181.64079861111114,139.83000063300133L181.96171875,150.53849991559983L182.28263888888887,149.35259830355645L182.60355902777778,139.28129925727845L182.92447916666666,149.1047993838787L183.24539930555557,146.43209897875786L183.56631944444445,141.26370116472245L183.88723958333335,147.6710988521576L184.20815972222223,140.57339739203454L184.5290798611111,149.47649776339532L184.85,145.06919964551926L185.17092013888887,139.84769829511643L185.49184027777778,148.44990148544312L185.81276041666666,152.9988020002842L186.13368055555557,149.0163005232811L186.45460069444445,145.81260167956353L186.77552083333333,146.80380263328553L187.0964409722222,150.57390051484109L187.4173611111111,157.31760125756264L187.73828125,152.85719960331917L188.05920138888888,142.78590055704117L188.3801215277778,151.1048989534378L188.70104166666667,152.7509978055954L189.02196180555558,154.0785018146038L189.34288194444446,148.87469812631608L189.6638020833333,149.9543979406357L189.98472222222222,151.79519745111466L190.3056423611111,149.97210087776185L190.6265625,146.308199518919L190.94748263888889,150.68010231256486L191.2684027777778,146.69760083556176L191.58932291666667,148.6622998058796L191.91024305555555,160.4328012406826L192.23116319444443,153.7421987593174L192.55208333333331,151.77749978899956L192.87300347222222,145.26390030384064L193.1939236111111,157.2822006583214L193.51484375,144.43199940919877L193.8357638888889,153.44130157828332L194.1566840277778,154.2909001350403L194.47760416666668,147.60029765367509L194.79852430555553,157.4415007174015L195.11944444444444,156.55650156140328L195.44036458333332,148.60920154452324L195.76128472222223,152.83950194120408L196.0822048611111,153.58289870023728L196.40312500000002,143.33460193276406L196.7240451388889,154.3617013335228L197.04496527777778,155.40600054860116L197.36588541666666,155.24670048952103L197.68680555555554,159.33539848923684L198.00772569444445,154.78649797439576L198.32864583333333,157.2822006583214L198.64956597222223,145.79489874243737L198.97048611111111,161.63640051484109L199.29140625,152.3792994260788L199.6123263888889,151.63589739203454L199.93324652777775,149.60040249824524L200.25416666666666,151.24650135040284L200.57508680555554,157.03440173864365L200.89600694444445,156.39720150232316L201.21692708333333,157.0875L201.53784722222224,154.62719791531563L201.85876736111112,145.68870221972466L202.1796875,163.1585999071598L202.50060763888888,151.58279913067818L202.82152777777776,146.73300143480301L203.14244791666667,157.29989832043648L203.46336805555555,156.85739874243737L203.78428819444446,154.04310121536255L204.10520833333334,154.0961994767189L204.42612847222222,160.8044996201992L204.74704861111113,163.83120074272156L205.06796874999998,156.4326021015644L205.38888888888889,152.96340140104294L205.70980902777777,158.1848974764347L206.03072916666667,154.11390241384507L206.35164930555555,158.94600244760514L206.67256944444443,154.89269977211953L206.99348958333334,157.42379778027535L207.31440972222222,149.68890135884286L207.63532986111113,148.85700046420098L207.95624999999998,150.60930111408234L208.2771701388889,154.3085977971554L208.59809027777777,157.17599886059762L208.91901041666668,160.27350118160248L209.23993055555556,160.4504989027977L209.56085069444444,162.27360075116158L209.88177083333335,152.04300164580346L210.2026909722222,153.12270146012307L210.5236111111111,164.20289912223816L210.84453125,158.16719981431962L211.1654513888889,162.0965977549553L211.48637152777778,158.14950215220452L211.80729166666666,161.56559931635857L212.12821180555557,162.39750021100045L212.44913194444445,169.12350065410138L212.77005208333335,148.52069740891457L213.0909722222222,156.87510167956353L213.41189236111111,147.7595977127552L213.7328125,157.7247002363205L214.0537326388889,164.94630115628243L214.37465277777778,159.15840076804162L214.69557291666666,154.7157020509243L215.01649305555557,158.8220977127552L215.33741319444442,168.80490053594113L215.65833333333333,159.7071021437645L215.9792534722222,153.26429858207703L216.30017361111112,159.38850202560425L216.62109375,163.1585999071598L216.94201388888888,161.31780039668084L217.2629340277778,155.95470192432404L217.58385416666667,165.4242013335228L217.90477430555558,168.52170101702214L218.22569444444443,165.54810079336167L218.54661458333334,160.20269998311997L218.86753472222222,153.86609821915627L219.1884548611111,159.353101426363L219.509375,160.50360243916512L219.83029513888889,162.39750021100045L220.1512152777778,156.39720150232316L220.47213541666665,171.12360022366047L220.79305555555555,153.44130157828332L221.11397569444443,156.87510167956353L221.43489583333334,163.10550164580346L221.75581597222222,158.69819825291634L222.0767361111111,159.86640220284463L222.39765625,159.1760984301567L222.7185763888889,168.61019987761975L223.0394965277778,171.79620105922223L223.36041666666665,162.83999978899956L223.68133680555556,158.25569867491723L224.00225694444444,159.31770082712174L224.32317708333332,154.34399839639664L224.64409722222223,165.0878982782364L224.9650173611111,170.27399902939797L225.28593750000002,151.2819019496441L225.60685763888887,163.68959834575654L225.92777777777778,168.00839760303498L226.24869791666666,161.8133982360363L226.56961805555557,164.50380157828332L226.89053819444445,161.03460087776185L227.21145833333333,162.92849864959717L227.53237847222223,153.90149881839753L227.85329861111111,162.59220086932183L228.17421875000002,158.0078997552395L228.49513888888887,156.0078001856804L228.81605902777778,163.51260062456132L229.13697916666666,165.76049911379815L229.45789930555554,170.66340034604073L229.77881944444445,160.91070141792298L230.09973958333333,163.74270188212395L230.42065972222224,168.5747992783785L230.74157986111112,155.81309952735901L231.0625,170.46869968771935L231.38342013888888,157.653899037838L231.70434027777776,165.63659965395928L232.02526041666667,160.4504989027977L232.34618055555555,166.30920048952103L232.66710069444446,163.1762975692749L232.98802083333334,160.23810058236123L233.30894097222225,164.8046987593174L233.6298611111111,163.05239810943604L233.95078125,155.3705999493599L234.27170138888889,158.69819825291634L234.59262152777777,163.01699751019478L234.91354166666667,163.68959834575654L235.23446180555555,165.0702006161213L235.55538194444446,157.38840245604516L235.87630208333334,156.18479790687562L236.19722222222222,170.9288995653391L236.5181423611111,171.10589992403985L236.83906249999998,155.2997987508774L237.1599826388889,170.59259914755822L237.48090277777777,162.91080098748208L237.80182291666668,168.55709897875786L238.12274305555556,168.11459940075875L238.44366319444447,164.3445015192032L238.76458333333332,166.85790186524392L239.0855034722222,163.28249936699868L239.4064236111111,167.4243009030819L239.72734375,160.7868019580841L240.0482638888889,163.56569888591767L240.36918402777778,170.22090076804162L240.69010416666669,162.9992998480797L241.01102430555557,153.81299995779992L241.33194444444445,160.9815026164055L241.65286458333333,171.97319878041745L241.9737847222222,166.30920048952103L242.29470486111111,161.4593975186348L242.615625,165.56579845547677L242.9365451388889,164.96399881839753L243.25746527777778,167.30040144324303L243.5783854166667,158.50349759459496L243.89930555555554,164.09670259952546L244.22022569444442,174.53970002532006L244.54114583333333,164.04359906315804L244.8620659722222,168.0791988015175L245.18298611111112,161.1761979997158L245.50390625,166.39769935011864L245.8248263888889,165.4418989956379L246.1457465277778,164.60999810099602L246.46666666666667,167.0526025235653L246.78758680555555,168.76949993669987L247.10850694444443,167.81370221972466L247.42942708333334,159.31770082712174L247.75034722222222,165.22950067520142L248.07126736111113,170.4332990884781L248.3921875,169.67219939231873L248.7131076388889,171.74310016036034L249.03402777777777,161.97269829511643L249.35494791666665,166.68089886903763L249.67586805555555,165.26490127444268L249.99678819444443,166.73400240540505L250.31770833333334,173.15910039246083L250.63862847222222,164.22060205936432L250.95954861111113,174.9114010423422L251.28046875,171.0704993247986L251.60138888888886,162.62760146856309L251.92230902777777,162.7161003291607L252.24322916666665,168.38010125756264L252.56414930555556,160.0964981853962L252.88506944444444,168.41549921929837L253.20598958333335,171.31830088198186L253.52690972222223,168.41549921929837L253.84782986111114,171.9201005190611L254.16875,162.7161003291607L254.48967013888887,162.94620158672333L254.81059027777778,162.32669901251793L255.13151041666666,168.1323023378849L255.45243055555557,169.7960988521576L255.77335069444445,167.5127997636795L256.0942708333333,170.09700130820275L256.4151909722222,161.63640051484109L256.7361111111111,157.4415007174015L257.05703125,162.96389924883843L257.3779513888889,162.3444019496441L257.6988715277778,164.7338975608349L258.01979166666666,165.63659965395928L258.34071180555554,161.21159859895707L258.6616319444444,163.03470044732094L258.9825520833333,158.7159011900425" style="fill: none;" fill="none"></path></g></g></g></g></g></g><g transform="translate(41, 177)" clip-path="url(#clip_1)"><clipPath id="clip_1"><rect width="288" height="23"></rect></clipPath><g><g><line x1="0" y1="0" x2="0" y2="5" style="visibility: inherit;" fill="rgb(0, 0, 0)" stroke="rgb(204, 204, 204)" stroke-width="1px"></line><line x1="32.092013888888886" y1="0" x2="32.092013888888886" y2="5" style="visibility: inherit;" fill="rgb(0, 0, 0)" stroke="rgb(204, 204, 204)" stroke-width="1px"></line><line x1="64.18402777777777" y1="0" x2="64.18402777777777" y2="5" style="visibility: inherit;" fill="rgb(0, 0, 0)" stroke="rgb(204, 204, 204)" stroke-width="1px"></line><line x1="96.27604166666666" y1="0" x2="96.27604166666666" y2="5" style="visibility: inherit;" fill="rgb(0, 0, 0)" stroke="rgb(204, 204, 204)" stroke-width="1px"></line><line x1="128.36805555555554" y1="0" x2="128.36805555555554" y2="5" style="visibility: inherit;" fill="rgb(0, 0, 0)" stroke="rgb(204, 204, 204)" stroke-width="1px"></line><line x1="160.46006944444446" y1="0" x2="160.46006944444446" y2="5" style="visibility: inherit;" fill="rgb(0, 0, 0)" stroke="rgb(204, 204, 204)" stroke-width="1px"></line><line x1="192.55208333333331" y1="0" x2="192.55208333333331" y2="5" style="visibility: inherit;" fill="rgb(0, 0, 0)" stroke="rgb(204, 204, 204)" stroke-width="1px"></line><line x1="224.64409722222223" y1="0" x2="224.64409722222223" y2="5" style="visibility: inherit;" fill="rgb(0, 0, 0)" stroke="rgb(204, 204, 204)" stroke-width="1px"></line><line x1="256.7361111111111" y1="0" x2="256.7361111111111" y2="5" style="visibility: inherit;" fill="rgb(0, 0, 0)" stroke="rgb(204, 204, 204)" stroke-width="1px"></line><line x1="288.828125" y1="0" x2="288.828125" y2="5" style="visibility: inherit;" fill="rgb(0, 0, 0)" stroke="rgb(204, 204, 204)" stroke-width="1px"></line></g><g transform="translate(0, 8)"><text x="0" y="0" dx="0em" dy="0.95em" style="text-anchor: middle; visibility: hidden; font-family: Roboto, sans-serif; font-size: 12px; font-weight: 200;" fill="rgb(33, 33, 33)" stroke="none" stroke-width="1px">-5k</text><text x="32.092013888888886" y="0" dx="0em" dy="0.95em" style="text-anchor: middle; visibility: inherit; font-family: Roboto, sans-serif; font-size: 12px; font-weight: 200;" fill="rgb(33, 33, 33)" stroke="none" stroke-width="1px">0</text><text x="64.18402777777777" y="0" dx="0em" dy="0.95em" style="text-anchor: middle; visibility: inherit; font-family: Roboto, sans-serif; font-size: 12px; font-weight: 200;" fill="rgb(33, 33, 33)" stroke="none" stroke-width="1px">5k</text><text x="96.27604166666666" y="0" dx="0em" dy="0.95em" style="text-anchor: middle; visibility: inherit; font-family: Roboto, sans-serif; font-size: 12px; font-weight: 200;" fill="rgb(33, 33, 33)" stroke="none" stroke-width="1px">10k</text><text x="128.36805555555554" y="0" dx="0em" dy="0.95em" style="text-anchor: middle; visibility: inherit; font-family: Roboto, sans-serif; font-size: 12px; font-weight: 200;" fill="rgb(33, 33, 33)" stroke="none" stroke-width="1px">15k</text><text x="160.46006944444446" y="0" dx="0em" dy="0.95em" style="text-anchor: middle; visibility: inherit; font-family: Roboto, sans-serif; font-size: 12px; font-weight: 200;" fill="rgb(33, 33, 33)" stroke="none" stroke-width="1px">20k</text><text x="192.55208333333331" y="0" dx="0em" dy="0.95em" style="text-anchor: middle; visibility: inherit; font-family: Roboto, sans-serif; font-size: 12px; font-weight: 200;" fill="rgb(33, 33, 33)" stroke="none" stroke-width="1px">25k</text><text x="224.64409722222223" y="0" dx="0em" dy="0.95em" style="text-anchor: middle; visibility: inherit; font-family: Roboto, sans-serif; font-size: 12px; font-weight: 200;" fill="rgb(33, 33, 33)" stroke="none" stroke-width="1px">30k</text><text x="256.7361111111111" y="0" dx="0em" dy="0.95em" style="text-anchor: middle; visibility: inherit; font-family: Roboto, sans-serif; font-size: 12px; font-weight: 200;" fill="rgb(33, 33, 33)" stroke="none" stroke-width="1px">35k</text><text x="288.828125" y="0" dx="0em" dy="0.95em" style="text-anchor: middle; visibility: hidden; font-family: Roboto, sans-serif; font-size: 12px; font-weight: 200;" fill="rgb(33, 33, 33)" stroke="none" stroke-width="1px">40k</text></g><line x1="0" y1="0" x2="288.828125" y2="0" fill="rgb(0, 0, 0)" stroke="rgb(204, 204, 204)" stroke-width="1px"></line></g></g></g></g></svg>